<?xml version="1.0" encoding="UTF-8"?>
<svg id="Calque_1" xmlns="http://www.w3.org/2000/svg" version="1.1" viewBox="0 0 155.91 155.91">
  <!-- Generator: Adobe Illustrator 29.2.0, SVG Export Plug-In . SVG Version: 2.1.0 Build 108)  -->
  <defs>
    <style>
      .st0 {
        fill: #fff;
      }
    </style>
  </defs>
  <path class="st0" d="M154.66,0v155.91H1.25V0h153.41ZM104.94,9.61C62.26-8.55,13.98,21.83,7.72,66.66-.71,127.12,63.71,171.87,116.35,138.88s42.52-106.32-11.41-129.27Z"/>
  <path d="M104.94,9.61c53.93,22.95,61.65,97.79,11.41,129.27S-.71,127.12,7.72,66.66C13.98,21.83,62.26-8.55,104.94,9.61ZM87.37,143.44c1.41-.63,7.79-1.41,10.26-2.16,35-10.54,54.51-48.33,44.01-83.39C126.17,6.22,59.78-6.66,26.54,36.17c-28.73,37.02-10.83,93.08,34.35,105.55,6.34,1.75,20.81,4.27,26.48,1.72Z"/>
  <path class="st0" d="M87.37,143.44c-5.67,2.55-20.14.04-26.48-1.72C15.71,129.25-2.19,73.19,26.54,36.17,59.78-6.66,126.17,6.22,141.64,57.89c10.5,35.07-9.01,72.85-44.01,83.39-2.47.75-8.85,1.53-10.26,2.16ZM74.37,14.18C32.55,16.79,5.99,60.37,20.31,99.32c17.35,47.2,79.62,55.89,108.87,14.72,30.43-42.81-1.98-103.16-54.82-99.86Z"/>
  <path d="M74.37,14.18c52.84-3.3,85.24,57.05,54.82,99.86-29.26,41.16-91.52,32.48-108.87-14.72C5.99,60.37,32.55,16.79,74.37,14.18ZM57.9,43.49c9.56-4.36,8.86-13.49,1.07-19.29l1.83,4.3c1.68,5.31.99,10.87-2.9,14.99ZM56.98,36.15c-.22-.21-2.15,1.41-2.45,1.68-4.53,3.96-9.35,9.83-5.15,15.88.72,1.04,3.56,3.53,4.7,3.88,1.07.33-.77-2.38-.92-2.76-2.57-6.65-.45-13.34,3.82-18.68ZM87.33,45.91c-.14-.2.26-2.87.35-3.41.1-.62.95-1.78.25-2.23l-10.72-1.35-.63,5.5c-7.85-.14-19.12-.74-21.74,8.58l50.83,7.05c.33-6.79-5.87-9.42-11.1-11.66-.26-.11-.27-.55-.61-.68-2.06-.79-4.53-1.05-6.63-1.78ZM108.11,69.53l.92-7.96c-.57.13-.61.8-.72,1.27-.45,2-.53,4.22-.79,6.26-.08.6.07.44.59.43ZM43.74,62.25c-.59-.59-2.7-.38-3.56-.34l-.96,7.61c.92.15.49-.23.62-.74.25-1.03.03-3.17,1.07-3.25,1.93-.15,1.73,2.09,2.45,3.4.1.18.32,1.17.77.6.14-.18-.98-3.8-1.53-4.14,1.22-.35,2.19-2.1,1.15-3.14ZM85.12,62.21c-1.94-.95-4.47-.03-3.42,2.35.5,1.13,2.55,1.49,2.56,2.98.09.73-.79,1.56-1.46,1.62-.85.08-1.87-1.52-2.25-1.16.13,1.93,3.49,2.1,4.12.61,1.17-2.75-2.59-3.75-2.6-5.05s2.29-1.39,3.07-.46l-.02-.89ZM53.91,63.41c-1.2-.23-.4,1.68-1.52,1.54v.59c1.13-.06.33.93.3,1.7s.01,1.53,0,2.29c.37.49.56,0,.61-.45.13-1.11-.04-2.36.36-3.49l.86-.04-.22-.62h-.7s.31-1.53.31-1.53ZM77.56,64.88c-.25-.43.16-1.17-.22-1.47-.65.8-.2,1.58-1.38,1.99,1.52.62-.13,2.83.62,4.13.45.43.55-.03.61-.45.08-.63-.13-3.41,0-3.53h1.23c.01-.46-.74-.47-.85-.67ZM47.71,67.29c.84-.67,1.18-2.38-.37-2.38-1.97,0-2.88,2.7-1.92,4.24.55.56,2.87.73,2.68-.54-.82.65-1.96.87-2.15-.46-.11-.78,1.11-.35,1.76-.86ZM51.47,65.54c-.37-.98-1.45-.56-2.1-.26-.84,1.33,1.82,3.19,1.49,3.63h-2.14c.31.95,2.19.83,2.62,0,.57-1.1-1.68-2.1-1.39-3.37h1.53ZM58.16,65.29c-.85-.35-2.03-.71-2.71.11-.12,1.02,1.74-.26,2.14.15v.91c-3.05-.23-4.11,4.68-.31,2.46-.04.63-.03.7.62.61l.26-4.24ZM60.04,64.94c-.39-.52-.56.04-.61.46-.28,2.25-1.02,5.71,2.44,3.53l.62.61.31-4.59c-.68-.12-.61.05-.76.6-.37,1.32-.01,4.69-2.27,2.88l.28-3.48ZM66.47,64.94l-2.31.28-.45,4.31c.87.14.51-.18.65-.71.52-1.96.1-2.56,2.1-3.88ZM69.84,69.53c-.29-1.19.57-2.68.25-3.76-.46-1.55-3.37-.72-2.7.09.82-.44,2.15-.63,2.14.61-3.08-.23-4.16,4.64-.31,2.46l.62.61ZM72.29,64.94l-.61.17-.62,4.41h.92c-.13-1.51.24-5.22,2.37-3.53-.22.94-.31,1.95-.4,2.91-.02.21-.34.96.32.63s.5-2.92.73-3.76l-1.05-.84-1.51.62-.15-.61ZM88.73,67.29c.96-.77,1.2-2.54-.65-2.35-2.41.24-2.86,4.39-.65,4.62.76.08,1.79.03,1.69-.94-.08-.1-1.01.94-1.92.33-1.5-1.92.55-.85,1.53-1.65ZM91.26,64.96l-.61.15-.6,4.42c1.35-.04.66-2.11,1.26-3.18.37-.66,1.63-1.4,1.8-.35.19,1.16-.25,2.06-.31,3.08-.04.61.07.48.61.45.52-1.92,1-6.28-1.99-3.98l-.16-.59ZM97.31,67.29c.47-.37,1.06-1.77.41-2.22-2.53-1.74-4.98,5.89-.01,4.31l-.16-.76-1.18.56c-.47-.1-1.23-1.22-.62-1.48.54-.03,1.11-.05,1.56-.4ZM102.3,64.93c-1.95-.3-3.71.87-3.71,2.91s1.24,1.65,2.78,1.52c-.48,2.04-.75,3.41-3.05,2v.92c4.51,1.14,3.45-4.51,3.98-7.35ZM106.27,69.53c-.19-2.72,1.5-5.58-2.75-4.28.3.96,1.31.13,1.98.3l.16.77c-3.16.26-3.83,4.91-.15,2.6l.76.61ZM112.7,69.53l-.13-4.3c-.86-1.23-5.17,1.16-.64.32l.17.77c-.11.33-2.21.21-2.71,1.9-.64,2.18,2.25.73,3.31,1.31ZM115.16,64.94l-.92.76-.31,3.83c.87.15.51-.18.65-.71.38-1.37.06-2.61.57-3.88ZM118.22,64.94c-1.53-.19-2.6.41-1.87,2.02.34.76,1.38.9,1.25,1.95-.61.44-2.09-.54-1.83.61l2.32-.28c.71-1.73-1.57-2.07-1.4-3.69.24-.23,1.86.52,1.53-.61ZM135.98,76.11c.23-1.68-.17-3.78,0-5.51,0-.97-4.07-.07-4.79.11-5.15,1.31-8.96,5.09-9.01,10.61l.63,2.91,4.44-6.13,3.83-3.06c-2.72,3.16-5.74,6.08-7.97,9.64-.09.68.12.36.46.47,5.92,1.93,11.65-3.41,12.41-9.04ZM59.73,74.73c-.09-.34-.51-.76-.83-.85-3.79-1.11-5.67,4.88-3.16,7.13l3.66.15.33-3.84-2.77-.14c-.35,1.21,1.87.34,2.14.61.26,2.14-1.18,3.53-3.22,2.46-1.33-3.02-.04-6.98,3.84-5.52ZM65.86,81.17c-.51-1.95-.62-4.75-1.24-6.57-.13-.37-.21-.89-.75-.78s-3.27,6.3-3.52,7.35c1.13.25,1.05-1.76,1.41-1.86l3.17.03c.19.19-.18,2.14.93,1.82ZM68.31,73.82c-.92-.15-.49.23-.62.74-.52,2.1-.44,4.47-.91,6.6h3.98c1.22-.93-2.94-.49-3.06-.61l.61-6.74ZM75.96,73.82l-3.64.03-.95,7.32h3.98c1.19-.9-3.37-.46-3.36-.76l.59-2.78,2.47-.14-2.45-.3.34-2.72c.16-.13,4.2.25,3.03-.64ZM82.05,73.85l-.88-.04-.92,7.35c1.23,1.32.87-5.75,1.83-5.51.31.88,1.72,5.7,2.6,5.51.47-.29.4-.61.47-1.07.3-2.06.47-4.2.61-6.28-.8-.07-.51-.04-.6.46-.12.65-.51,5.35-.78,5.36l-2.33-5.79ZM91.27,73.82h-3.67s-.92,7.35-.92,7.35h3.98c1.22-.93-2.94-.49-3.06-.61l.34-3.03,2.72-.04-2.63-.59.18-2.46c.12-.12,4.28.31,3.06-.61ZM93.7,73.83h-.9s-.92,7.34-.92,7.34c.79.22.73-.64.83-1.15.27-1.45.37-3.19.4-4.67,1.22,1.57,1.89,3.9,2.45,5.82h.89s.93-7.35.93-7.35c-.87-.14-.51.18-.65.71-.44,1.64-.34,3.47-.72,5.11l-2.31-5.81ZM102.91,73.82l-3.64.03-.95,7.32h3.98c1.19-.9-3.37-.46-3.36-.76l.59-2.78,2.47-.14-2.45-.3.34-2.72c.16-.13,4.2.25,3.03-.64ZM44.12,94.34c.41-.05.54-.42.6-.78,1.07-6.41-4.97-11.21-11.01-10.86-1.02,6.94,2.41,14.22,10.41,12.56-1.54-3.41-4.52-5.8-7.04-8.42-.05-.23.32-.21.45-.15.38.17,3.21,2.85,3.68,3.36,1.08,1.18,2.27,2.82,2.91,4.29ZM48.71,90.36c3.48.94,5.63-2.78,3.37-5.36l-2.76-.15-.61,5.51ZM72.9,84.85h-3.37s1.23.3,1.23.3l-.31,5.21c.46.05.53-.78.58-1.1.2-1.25.19-2.82.33-4.11l1.53-.3ZM72.9,90.36c1.4-1.51.88-3.68.91-5.51-.46-.01-.52,1.07-.57,1.41-.19,1.27-.22,2.8-.34,4.1ZM81.78,84.85c-.94-.15-.49.24-.6.76-.33,1.55-.37,3.18-.62,4.75,1.76.4,3.33-.88,2.48-2.63l-1.25-.43c-.1.48.57.3.77.6.62.93-.2,2.42-1.38,2.15l.61-5.2ZM92.8,90.36l.3-5.51c-.89.19-.42,2.14-.64,2.42-.29.35-3.36.39-1.82,2.97l2.16.13ZM56.06,87.29c-.91.29-.51,2.56-1.38,2.76-1.35.3-.19-2.39-.46-2.76-.87.16-.81,2.59-.32,2.94l2.16.12v-3.06ZM65.86,90.36c-.12-1.83.36-4.41-2.14-2.45l1.83.16c-.67.78-2.3.44-2.14,1.83.6.84,1.61.14,2.45.46ZM78.11,89.14c1.88.3,3.05-2.41.83-1.79-1.04.29-1.57,2.02-.85,2.88l1.55.13-1.53-1.22ZM84.75,87.35c-1.15.34-1.51,3.33.54,3.02,1.85-.28,1.82-3.72-.54-3.02ZM89.74,87.29c-.91.29-.51,2.56-1.38,2.76-1.35.3-.19-2.39-.46-2.76-.87.16-.81,2.59-.32,2.94l2.16.12v-3.06ZM97.01,88.75c.83-.79.16-1.89-1.14-1.3-1.76.79-.95,3.54,1.22,2.91l-.15-.61-1.38-.16c-.3-.68,1.04-.45,1.45-.84ZM100.15,90.36l.17-2.77-2.02-.14-.6,2.91c.96.17.47-.29.61-.75.25-.8.24-1.45,1.08-2,1.36-.29-.2,2.48.76,2.75ZM103.82,90.36l-.13-2.77-1.97-.24-.34,3.02,1.38-2.75c1.74.16-.58,2.84,1.07,2.75ZM106.89,87.3c-3.08-.56-2.94,4.55,0,2.6-.69-.25-1.66.69-1.84-.61,1.16-.41,2.09-.45,1.84-1.99ZM103.67,92.81c-16.48.14-32.97-.1-49.45,0v2.45c.84.05,1.87-.3,2.45.46v4.75l-2.6-2.76h-7.5v4.9h7.5c.28,0,2.42,2.75,2.54,3.28.91,3.96-2.1,10.51,4.49,11.13,11.74-.72,24.54.92,36.16,0,7.09-.56,3.83-6.84,4.8-11.13.23-1.02,1.96-2.31,2.54-3.28h7.5v-4.9h-7.5l-2.6,2.76v-4.75c.58-.76,1.61-.4,2.45-.46l-.04-2.26c-.29-.76-.61-.19-.73-.19Z"/>
  <path class="st0" d="M103.67,92.81c.12,0,.44-.57.73.19l.04,2.26c-.84.05-1.87-.3-2.45.46v4.75l2.6-2.76h7.5v4.9h-7.5c-.58.97-2.31,2.26-2.54,3.28-.97,4.29,2.29,10.57-4.8,11.13-11.62.92-24.41-.72-36.16,0-6.59-.62-3.59-7.17-4.49-11.13-.12-.53-2.26-3.28-2.54-3.28h-7.5v-4.9h7.5l2.6,2.76v-4.75c-.58-.76-1.61-.4-2.45-.46v-2.45c16.48-.1,32.97.14,49.45,0ZM64.33,97.71h-5.21v16.08l.46.46h4.75v-16.54Z"/>
  <path class="st0" d="M87.33,45.91c2.1.73,4.57.99,6.63,1.78.34.13.35.57.61.68,5.22,2.24,11.43,4.87,11.1,11.66l-50.83-7.05c2.62-9.32,13.89-8.71,21.74-8.58l.63-5.5,10.72,1.35c.7.45-.15,1.61-.25,2.23-.09.54-.49,3.21-.35,3.41ZM86.68,41.97l-8.13-1.15c-.58.11-.74,3.2-.75,3.9l8.27.92.61-3.67ZM77.49,45.95c-4.13-.36-8.63-.13-12.68.94-1.84.49-4.36,1.79-5.78,3.1-.3.27-.66.27-.51.86,1.59-.04,4.14.99,5.6.55.55-.17,1.19-1.19,1.77-1.59,1.91-1.34,4.03-2.65,6.34-3.15l5.27-.7Z"/>
  <path class="st0" d="M135.98,76.11c-.76,5.63-6.49,10.97-12.41,9.04-.33-.11-.55.21-.46-.47,2.23-3.56,5.25-6.48,7.97-9.64l-3.83,3.06-4.44,6.13-.63-2.91c.05-5.52,3.86-9.29,9.01-10.61.71-.18,4.79-1.08,4.79-.11-.17,1.74.23,3.83,0,5.51Z"/>
  <path class="st0" d="M44.12,94.34c-.64-1.48-1.82-3.11-2.91-4.29-.47-.52-3.3-3.19-3.68-3.36-.13-.06-.5-.08-.45.15,2.52,2.63,5.5,5.02,7.04,8.42-8,1.67-11.43-5.61-10.41-12.56,6.04-.35,12.08,4.45,11.01,10.86-.06.36-.18.72-.6.78Z"/>
  <path class="st0" d="M56.98,36.15c-4.27,5.33-6.39,12.03-3.82,18.68.15.38,1.98,3.09.92,2.76-1.13-.35-3.97-2.84-4.7-3.88-4.21-6.05.62-11.91,5.15-15.88.3-.26,2.23-1.89,2.45-1.68Z"/>
  <path class="st0" d="M57.9,43.49c3.88-4.12,4.58-9.69,2.9-14.99l-1.83-4.3c7.79,5.8,8.49,14.93-1.07,19.29Z"/>
  <path class="st0" d="M93.7,73.83l2.31,5.81c.39-1.65.29-3.48.72-5.11.14-.53-.22-.85.65-.71l-.93,7.34h-.89c-.56-1.91-1.24-4.24-2.45-5.81-.03,1.48-.13,3.22-.4,4.67-.1.51-.04,1.37-.83,1.15l.92-7.35h.9Z"/>
  <path class="st0" d="M82.05,73.85l2.33,5.79c.27,0,.65-4.71.78-5.36.09-.5-.2-.53.6-.46-.14,2.08-.31,4.22-.61,6.28-.06.45,0,.78-.47,1.07-.88.19-2.29-4.63-2.6-5.51-.96-.24-.61,6.83-1.83,5.51l.92-7.35.88.04Z"/>
  <path class="st0" d="M43.74,62.25c1.04,1.04.07,2.79-1.15,3.14.55.34,1.67,3.96,1.53,4.14-.45.57-.67-.42-.77-.6-.72-1.3-.52-3.55-2.45-3.4-1.04.08-.81,2.22-1.07,3.25-.13.52.31.89-.62.74l.96-7.61c.86-.04,2.97-.26,3.56.34ZM40.44,64.94c2.02.86,4.5-1.96,1.98-2.44-2.15-.42-2.12.64-1.98,2.44Z"/>
  <path class="st0" d="M59.73,74.73c-3.87-1.46-5.16,2.5-3.84,5.52,2.05,1.07,3.48-.32,3.22-2.46-.27-.27-2.49.6-2.14-.61l2.77.14-.33,3.84-3.66-.15c-2.52-2.25-.64-8.25,3.16-7.13.32.09.74.51.83.85Z"/>
  <path class="st0" d="M65.86,81.17c-1.11.32-.74-1.63-.93-1.82l-3.17-.03c-.36.1-.28,2.11-1.41,1.86.26-1.05,3-7.24,3.52-7.35s.62.41.75.78c.62,1.82.73,4.62,1.24,6.57ZM64.63,78.72l-.76-3.67-1.68,3.67h2.45Z"/>
  <path class="st0" d="M102.3,64.93c-.53,2.84.53,8.49-3.98,7.35v-.92c2.31,1.42,2.58.04,3.06-2-1.54.12-2.78.57-2.78-1.52s1.76-3.22,3.71-2.91ZM101.68,65.55c-1.55-.66-3.16,2.53-2.16,3.23,2.17.7,1.85-1.77,2.16-3.23Z"/>
  <path class="st0" d="M106.27,69.53l-.76-.61c-3.67,2.31-3.01-2.35.15-2.6l-.16-.77c-.68-.17-1.68.66-1.98-.3,4.25-1.3,2.56,1.56,2.75,4.28Z"/>
  <path class="st0" d="M112.7,69.53c-1.06-.58-3.95.87-3.31-1.31.5-1.69,2.6-1.57,2.71-1.9l-.17-.77c-4.53.84-.22-1.55.64-.32l.13,4.3Z"/>
  <path class="st0" d="M58.16,65.29l-.26,4.24c-.65.09-.66.03-.62-.61-3.8,2.22-2.74-2.7.31-2.46v-.91c-.4-.41-2.26.87-2.14-.15.68-.83,1.86-.46,2.71-.11Z"/>
  <path class="st0" d="M69.84,69.53l-.62-.61c-3.84,2.19-2.77-2.69.31-2.46,0-1.24-1.32-1.05-2.14-.61-.68-.8,2.24-1.64,2.7-.09.32,1.09-.54,2.57-.25,3.76Z"/>
  <path class="st0" d="M91.27,73.82c1.22.93-2.94.49-3.06.61l-.18,2.46,2.63.59-2.72.04-.34,3.03c.12.12,4.28-.32,3.06.61h-3.98s.92-7.35.92-7.35h3.67Z"/>
  <path class="st0" d="M75.96,73.82c1.17.89-2.87.51-3.03.64l-.34,2.72,2.45.3-2.47.14-.59,2.78c0,.3,4.55-.15,3.36.76h-3.98s.95-7.32.95-7.32l3.64-.03Z"/>
  <path class="st0" d="M102.91,73.82c1.17.89-2.87.51-3.03.64l-.34,2.72,2.45.3-2.47.14-.59,2.78c0,.3,4.55-.15,3.36.76h-3.98s.95-7.32.95-7.32l3.64-.03Z"/>
  <path class="st0" d="M85.12,62.21l.02.89c-.77-.93-3.08-.87-3.07.46s3.77,2.3,2.6,5.05c-.63,1.49-4,1.32-4.12-.61.38-.36,1.39,1.24,2.25,1.16.66-.06,1.55-.89,1.46-1.62,0-1.5-2.06-1.86-2.56-2.98-1.05-2.38,1.48-3.3,3.42-2.35Z"/>
  <path class="st0" d="M88.73,67.29c-.98.79-3.03-.28-1.53,1.65.91.61,1.84-.43,1.92-.33.1.97-.93,1.02-1.69.94-2.21-.23-1.76-4.37.65-4.62,1.85-.19,1.61,1.58.65,2.35Z"/>
  <path class="st0" d="M47.71,67.29c-.64.51-1.86.08-1.76.86.18,1.32,1.33,1.11,2.15.46.19,1.27-2.12,1.1-2.68.54-.95-1.53-.04-4.24,1.92-4.24,1.55,0,1.21,1.71.37,2.38Z"/>
  <path class="st0" d="M97.31,67.29c-.45.36-1.01.38-1.56.4-.61.26.15,1.38.62,1.48l1.18-.56.16.76c-4.97,1.58-2.52-6.05.01-4.31.65.45.06,1.85-.41,2.22Z"/>
  <path class="st0" d="M72.29,64.94l.15.61,1.51-.62,1.05.84c-.22.84-.05,3.41-.73,3.76s-.34-.41-.32-.63c.09-.96.18-1.97.4-2.91-2.13-1.69-2.51,2.02-2.37,3.54h-.92s.62-4.42.62-4.42l.61-.17Z"/>
  <path class="st0" d="M60.04,64.94l-.28,3.48c2.26,1.81,1.91-1.56,2.27-2.88.15-.55.09-.71.76-.6l-.31,4.59-.62-.61c-3.45,2.18-2.72-1.28-2.44-3.53.05-.42.22-.97.61-.46Z"/>
  <path class="st0" d="M91.26,64.96l.16.59c2.99-2.3,2.51,2.06,1.99,3.98-.54.03-.65.15-.61-.45.06-1.01.5-1.92.31-3.08-.17-1.05-1.44-.3-1.8.35-.6,1.07.09,3.14-1.26,3.18l.6-4.42.61-.15Z"/>
  <path class="st0" d="M48.71,90.36l.61-5.51,2.76.15c2.27,2.58.12,6.29-3.37,5.36ZM52.01,85.53c-.31-.3-1.7-.55-2.03-.34l-.65,4.86c2.48.87,4.02-3.19,2.68-4.52Z"/>
  <path class="st0" d="M68.31,73.82l-.61,6.74c.12.12,4.28-.32,3.06.61h-3.98c.47-2.13.39-4.5.91-6.6.13-.52-.31-.89.62-.74Z"/>
  <path class="st0" d="M92.8,90.36l-2.16-.13c-1.54-2.58,1.53-2.62,1.82-2.97.22-.27-.25-2.23.64-2.42l-.3,5.51ZM92.04,87.61c-.83-.03-2.02,2.22-.92,2.44.9.18,1.7-2.41.92-2.44Z"/>
  <path class="st0" d="M108.11,69.53c-.52.01-.66.17-.59-.43.26-2.05.34-4.26.79-6.26.11-.47.15-1.14.72-1.27l-.92,7.96Z"/>
  <path class="st0" d="M65.86,90.36c-.83-.33-1.85.38-2.45-.46-.16-1.4,1.47-1.06,2.14-1.83l-1.83-.16c2.51-1.96,2.02.62,2.14,2.45Z"/>
  <path class="st0" d="M53.91,63.41l-.31,1.53h.7s.22.61.22.61l-.86.04c-.4,1.13-.23,2.38-.36,3.49-.05.46-.24.94-.61.45.01-.76-.04-1.53,0-2.29s.83-1.76-.28-1.7v-.59c1.11.14.31-1.76,1.51-1.54Z"/>
  <path class="st0" d="M77.56,64.88c.12.2.86.21.85.67h-1.23c-.13.12.08,2.9,0,3.53-.05.43-.16.88-.61.45-.75-1.31.91-3.51-.62-4.13,1.18-.41.72-1.19,1.38-1.99.37.3-.04,1.04.22,1.47Z"/>
  <path class="st0" d="M118.22,64.94c.33,1.13-1.29.38-1.53.61-.17,1.62,2.11,1.97,1.4,3.69l-2.32.28c-.25-1.15,1.23-.17,1.83-.61.12-1.06-.91-1.19-1.25-1.95-.73-1.62.34-2.21,1.87-2.02Z"/>
  <path class="st0" d="M81.78,84.85l-.61,5.2c1.19.27,2.01-1.22,1.38-2.15-.2-.3-.87-.12-.77-.6l1.25.43c.85,1.75-.72,3.03-2.48,2.63.25-1.56.29-3.19.62-4.75.11-.52-.34-.92.6-.76Z"/>
  <path class="st0" d="M51.47,65.54h-1.53c-.29,1.28,1.96,2.28,1.39,3.37-.43.83-2.31.94-2.62,0h2.14c.34-.45-2.33-2.31-1.49-3.64.65-.29,1.73-.72,2.1.26Z"/>
  <path class="st0" d="M97.01,88.75c-.41.39-1.75.16-1.45.84l1.38.16.15.61c-2.17.64-2.98-2.11-1.22-2.91,1.31-.59,1.98.51,1.14,1.3Z"/>
  <path class="st0" d="M66.47,64.94c-2,1.32-1.58,1.92-2.1,3.88-.14.53.21.85-.65.71l.45-4.31,2.31-.28Z"/>
  <path class="st0" d="M78.11,89.14l1.53,1.22-1.55-.13c-.73-.86-.2-2.59.85-2.88,2.22-.62,1.05,2.09-.83,1.79Z"/>
  <path class="st0" d="M106.89,87.3c.25,1.54-.68,1.58-1.84,1.99.17,1.3,1.15.36,1.84.61-2.94,1.95-3.08-3.16,0-2.6Z"/>
  <path class="st0" d="M72.9,84.85l-1.53.3c-.14,1.29-.14,2.86-.33,4.11-.05.32-.12,1.14-.58,1.1l.31-5.21-1.23-.3h3.37Z"/>
  <path class="st0" d="M100.15,90.36c-.96-.27.6-3.04-.76-2.75-.84.54-.83,1.2-1.08,2-.14.46.35.92-.61.75l.6-2.91,2.02.14-.17,2.77Z"/>
  <path class="st0" d="M103.82,90.36c-1.65.09.68-2.6-1.07-2.75l-1.38,2.75.34-3.02,1.97.24.13,2.77Z"/>
  <path class="st0" d="M56.06,87.29v3.06s-2.16-.12-2.16-.12c-.49-.35-.54-2.78.32-2.94.27.37-.9,3.06.46,2.76.86-.19.47-2.46,1.38-2.76Z"/>
  <path class="st0" d="M84.75,87.35c2.36-.7,2.38,2.73.54,3.02-2.04.31-1.69-2.67-.54-3.02ZM84.61,87.99c-.62.65-.6,2.34.64,2.02,1.53-.39.78-3.51-.64-2.02Z"/>
  <path class="st0" d="M89.74,87.29v3.06s-2.16-.12-2.16-.12c-.49-.35-.54-2.78.32-2.94.27.37-.9,3.06.46,2.76.86-.19.47-2.46,1.38-2.76Z"/>
  <path class="st0" d="M72.9,90.36c.12-1.3.15-2.83.34-4.1.05-.34.11-1.43.57-1.41-.03,1.83.48,4-.91,5.51Z"/>
  <path class="st0" d="M115.16,64.94c-.51,1.28-.2,2.51-.57,3.88-.14.52.22.85-.65.71l.31-3.83.92-.76Z"/>
  <polygon points="64.33 97.71 64.33 114.25 59.58 114.25 59.12 113.79 59.12 97.71 64.33 97.71"/>
  <path d="M77.49,45.95l-5.27.7c-2.31.5-4.43,1.81-6.34,3.15-.58.41-1.23,1.43-1.77,1.59-1.46.44-4.01-.59-5.6-.55-.14-.59.22-.59.51-.86,1.42-1.31,3.94-2.61,5.78-3.1,4.05-1.07,8.55-1.29,12.68-.94Z"/>
  <path d="M86.68,41.97l-.61,3.67-8.27-.92c.01-.7.17-3.8.75-3.9l8.13,1.15Z"/>
  <path d="M40.44,64.94c-.14-1.8-.17-2.86,1.98-2.44,2.52.49.04,3.3-1.98,2.44Z"/>
  <polygon points="64.63 78.72 62.19 78.72 63.87 75.04 64.63 78.72"/>
  <path d="M101.68,65.55c-.31,1.47,0,3.93-2.16,3.23-1-.7.61-3.89,2.16-3.23Z"/>
  <path d="M52.01,85.53c1.33,1.33-.21,5.39-2.68,4.52l.65-4.86c.33-.21,1.73.04,2.03.34Z"/>
  <path d="M92.04,87.61c.78.03-.01,2.62-.92,2.44-1.11-.22.08-2.47.92-2.44Z"/>
  <path d="M84.61,87.99c1.42-1.49,2.17,1.63.64,2.02-1.24.32-1.26-1.37-.64-2.02Z"/>
</svg>