<?xml version="1.0" encoding="UTF-8"?>
<svg id="Calque_1" xmlns="http://www.w3.org/2000/svg" version="1.1" viewBox="0 0 595.28 841.89">
  <!-- Generator: Adobe Illustrator 29.2.0, SVG Export Plug-In . SVG Version: 2.1.0 Build 108)  -->
  <defs>
    <style>
      .st0, .st1 {
        stroke: #000;
        stroke-miterlimit: 10;
        stroke-width: .25px;
      }

      .st1 {
        fill: #fff;
      }
    </style>
  </defs>
  <path class="st1" d="M491.41,163.57v375H116.41V163.57h375ZM292.89,174.26c-133.02,9.01-206.51,161.8-131.44,272.48,73.2,107.92,235.19,100.11,297.9-13.95,67.05-121.95-28.57-267.87-166.46-258.53Z"/>
  <g>
    <path class="st0" d="M292.89,174.26c137.89-9.34,233.52,136.58,166.46,258.53-62.72,114.07-224.7,121.87-297.9,13.95-75.08-110.68-1.58-263.47,131.44-272.48ZM295.89,187.73c-124.11,7.62-193.43,149.26-122.46,252.28,67.49,97.97,215.04,91.11,273.2-12.46,62.57-111.41-23.95-247.6-150.75-239.82Z"/>
    <path class="st1" d="M295.89,187.73c126.8-7.78,213.31,128.41,150.75,239.82-58.16,103.57-205.71,110.42-273.2,12.46-70.97-103.01-1.66-244.66,122.46-252.28ZM295.89,196.71c-110.22,6.74-176.02,128.11-122.98,225.11,53.48,97.81,192.34,106.21,256.99,15.19,74.58-104.98-6.26-248.11-134.01-240.3Z"/>
    <g>
      <path class="st0" d="M295.89,196.71c127.76-7.81,208.59,135.32,134.01,240.3-64.65,91.01-203.51,82.61-256.99-15.19-53.04-97,12.77-218.37,122.98-225.11ZM255.63,267.6c.54.48,4.66-2.52,5.49-3.11,6.2-4.43,11.98-10.86,12.07-18.96.11-10.42-7.75-17.97-14.94-24.32l4.69,11.03c4.05,12.41,1.68,25.81-7.31,35.37ZM253.38,249.65l-6,4.1c-10.83,9.79-23.1,23.84-12.29,38.52,1.67,2.27,8.69,8.24,11.2,9.02.96.3,1.48-.18,1.1-1.1-.54-1.34-2.5-3.56-3.35-5.63-6.45-15.69-.73-32.32,9.35-44.89ZM327.56,273.52c-.31-.44.63-7.14.85-8.36.27-1.52,2.33-4.35.61-5.45l-26.21-3.31-1.52,13.45c-18.41-.25-46.99-1.83-53.14,20.21l124.25,17.22c.33-22.3-27.44-29.36-44.84-33.76ZM378.38,329.73l2.25-18.71c-1.32.23-1.31,1.5-1.6,2.52-1.16,4.14-1.51,10.59-2.1,15.12-.19,1.48.2,1.11,1.45,1.07ZM221.03,312.69c-1.46-1.46-6.61-.88-8.71-.83l-2.34,17.87c2.25.35,1.22-.53,1.5-1.83.77-3.56-.06-9.11,5.06-6.59,2.03,1,2.39,4.72,3.55,6.96.56,1.08-.06,1.83,1.86,1.46.46-.53-2.5-8.5-3.74-9.36,3.52-1.61,4.91-4.07,2.82-7.68ZM322.2,312.58c-4.75-2.3-10.93-.08-8.37,5.74,1.27,2.89,9.21,5.14,5.08,9.2-3.85,3.79-6.68-2.67-7.89-1.52.38,4.75,8.46,5.11,10.09,1.49,2.62-5.84-6.37-8.54-6.38-11.59,0-3.23,5.63-3.43,7.51-1.12l-.04-2.19ZM245.9,315.51c-2.95-.55-.99,4.2-3.73,3.75l.02,1.46,1.53.46-.81,8.54c.81.96,1.45.14,1.49-1.11.1-2.68.21-5.19.86-7.79l2.14-.08-.54-1.5h-1.71s.75-3.73.75-3.73ZM303.68,319.13c-.63-.91.43-2.93-.51-3.61-1.65,1.98-.44,3.83-3.37,4.86l1.51.84c.43,3.06-1.34,5.62,0,8.52,1,.85,1.43.07,1.49-1.11.13-2.61-.09-5.27,0-7.87h3c.02-1.16-1.79-1.17-2.1-1.62ZM226.43,325.24c4.68,1.33,9.07-6.04,3.38-6.05s-8.56,10.43-1.5,10.57c1.81.04,3.53-.06,3.35-2.29l-3.26,1.39c-1.5-.74-2.23-1.94-1.98-3.64ZM239.91,320.75c-.93-2.43-3.41-1.36-5.15-.65-1.42,4.16,3.06,4.84,3.65,8.14h-5.24c1.38,3.21,8.23,1.3,6.39-2.24-.85-1.63-4.11-2.54-3.39-5.24h3.74ZM256.28,320.1c-1.68-.79-5.64-1.72-6.63.29-1.13,2.28,4.43-.4,5.23.37v2.23c-8.46-.55-9.44,10.43-.76,5.26-.11,1.55-.09,1.7,1.51,1.49l.65-9.63ZM260.87,319.26c-.87-1.02-1.43-.11-1.48,1.12-.15,3.31-1.4,6.27.08,9.26,2.87.99,3.77-.49,5.52-1.4.53-.28-.07,2.45,1.86,1.49l.75-10.47c-1.6-.28-1.54.12-1.86,1.46-.8,3.32-.49,10.53-5.57,6.3l.7-7.77ZM276.59,319.26l-4.78.12-.86.58-1.09,9.77c2.13.34,1.26-.42,1.58-1.74.37-1.52.45-3.72,1.05-4.97.81-1.69,3.37-2.05,4.09-3.76ZM284.82,329.73c-.75-2.62,1.29-6.21.64-8.45-.78-2.68-6.73-3.23-6.62.22,2.01-1.1,5.25-1.54,5.23,1.49-8.65-.47-9.45,10.35-.76,5.25l1.51,1.49ZM290.81,319.26c-.66.02-1.34-.37-1.49.42-.64,3.38-.46,6.88-1.51,10.05h2.24c-.55-3.8.98-11.83,5.82-7.88-.7,2.07-.6,4.2-1,6.35-.58,3.1,1.45,1.8,1.92-1.08.88-5.3,1.08-10.73-5.62-6.37l-.37-1.49ZM325.99,325.25c3.39.43,7.94-1.26,6.41-5.29-5.93-2.88-10.46,4.65-6.43,9.42,2.15.69,6.15,1.12,6-1.88-2.88,2.14-5.75,1.67-5.98-2.24ZM337.2,319.29c-1.54-.52-1.81.65-2.04,2-.45,2.76-.14,5.68-.93,8.44,1.58.28,1.55-.12,1.87-1.46.52-2.17.22-5.4,2.2-6.82,1.09-.79,3.31-1.68,3.42.4.16,2.75-.63,4.47-.77,6.76-.09,1.49.18,1.19,1.5,1.12.95-3.11,1.14-6.54.43-9.77-1.7-1.44-4.04-.89-5.29.79l-.39-1.46ZM347.69,325.24c4.75,1.36,9.03-6.14,3.37-6.06-5.08.07-7.88,9.92-1.52,10.59,4.26.45,4.8-2.28,3.02-2.28-1.05,0-4.44,4.05-4.87-2.26ZM364.17,319.25c-5.19-2.12-12.24,6.32-7.93,9.79,2.15,1.73,3.62-.28,5.67.3-1.17,4.99-1.84,8.34-7.47,4.87v2.24c10.69,2.76,8.54-10.28,9.73-17.21ZM373.89,329.73c-.2-6.63,3.25-12.74-6.73-9.72.73,2.37,3.17.27,4.85.73,1.91,3.48-2.9,2.12-4.89,4.08-1.46,1.43-1.54,3.08-.62,4.82,2.88.97,3.76-.49,5.52-1.41.53-.28-.07,2.45,1.86,1.49ZM389.61,329.73c-1.08-6.03,3.24-13.01-6.73-9.72-.6,3.03,3.21,0,4.85.73,1.84,3.15-2.15,2.43-4.06,3.42-1.58.83-3.16,3.13-1.96,4.86,2.43,1.77,5.11-.81,7.9.7ZM395.6,319.26c-2.34-2.48-2.95,9.49-2.99,10.47,2.15.35,1.24-.45,1.58-1.75.8-3.1.27-5.86,1.41-8.72ZM403.08,319.26c-2.72-.43-6.01.49-4.94,3.77.68,2.06,3.81,2.42,3.44,5.21-1.19,1.24-5.24-1.44-4.49,1.5,3.7.27,7.56.49,5.48-4.32-.71-1.63-4.08-1.7-3.23-4.66.56-.55,4.55,1.27,3.74-1.5ZM446.5,345.83c.57-4.09-.41-9.24,0-13.47,0-2.52-11.05.07-12.88.59-13.6,3.88-22.18,14.7-20.59,29.14.08.75.26,3.68,1.28,3.57,4.23-7.89,10.55-15.36,17.6-20.95.84-.67,1.19-1.85,2.62-1.5-3.37,4.27-7.76,8.21-11.21,12.36-1.38,1.66-8.05,9.95-8.26,11.21-.26,1.55.2.96,1.12,1.14,15.35,2.89,28.21-6.68,30.33-22.09ZM260.12,342.45c-.21-.83-1.24-1.86-2.01-2.09-8.23-2.51-12.82,9.01-9.37,15.35,2.63,4.81,6.53,1.08,10.61,2.47.69-2.42.94-5,1.2-7.5.08-.75.61-1.22-.39-1.89l-6.77-.34c-.83,2.96,4.49.82,5.24,1.49,1.7,6.65-7.87,10.11-8.94,3.33-1.19-7.49,2.28-13.81,10.43-10.82ZM275.09,358.17c-1.12-5.1-1.67-11.11-3.02-16.06-.85-3.08-2.36-2.05-3.53.15-.89,1.66-7.5,15.27-6.91,15.91,2.62.81,2.67-4.4,3.44-4.53l7.76.07c.46.58-.46,5.2,2.27,4.46ZM281.08,340.22c-2.26-.36-1.21.54-1.5,1.84-1.16,5.27-1.18,10.82-2.24,16.12h9.72c.98-.83.12-1.43-1.11-1.49-2.12-.11-4.27.08-6.38,0l1.5-16.47ZM299.79,340.22l-8.91.06-2.31,17.9h9.73c.98-.84.12-1.44-1.11-1.5-2.34-.12-4.86.4-7.11-.36l1.44-6.79,6.03-.33c.17-1.31-1.7-.7-2.62-.74-1.12-.05-2.26.05-3.37,0l.82-6.67c2.09-.23,4.21.04,6.31-.07,1.23-.06,2.09-.66,1.11-1.49ZM314.68,340.29c-.44-.28-1.5.02-2.16-.08l-2.25,17.97c1.43.22,2.01-.57,2.24-1.87.5-2.83.3-6.82.77-9.71.14-.88.47-1.76,1.47-1.89,1.33,3.47,2.56,8.64,4.34,11.76,1.61,2.84,2.76,2.08,3.17-.89.71-5.05,1.14-10.27,1.47-15.36-.95-1.13-1.39-.04-1.47,1.13-.32,4.37-1.02,8.82-1.9,13.1-1.3-1.73-4.94-13.67-5.69-14.15ZM337.21,340.22h-8.98s-2.25,17.96-2.25,17.96h9.72c.98-.83.12-1.43-1.11-1.49-2.12-.11-4.27.08-6.38,0l.82-7.42,6.67-.07-6.41-1.46.43-6.02c2.11-.09,4.26.1,6.37,0,1.23-.06,2.08-.66,1.11-1.49ZM343.17,340.24l-2.19-.02-2.25,17.96c1.95.32,1.34-.29,1.7-1.63,1.01-3.71,1.14-8.69,1.3-12.59,1.31.19,1.27,1.53,1.7,2.41,1.73,3.59,3.33,7.93,4.3,11.8l2.19-.02,2.28-17.94c-2.14-.35-1.25.44-1.58,1.75-1.03,4.02-.89,8.42-1.78,12.48l-5.65-14.2ZM365.66,340.22l-8.91.06-2.31,17.9h9.73c.98-.84.12-1.44-1.11-1.5-2.34-.12-4.86.4-7.11-.36l1.44-6.79,6.03-.33c.17-1.31-1.7-.7-2.62-.74-1.12-.05-2.26.05-3.37,0l.82-6.67c2.09-.23,4.21.04,6.31-.07,1.23-.06,2.09-.66,1.11-1.49ZM221.95,389.61c.99-.13,1.33-1.01,1.47-1.89,2.63-15.92-12.43-26.26-26.93-25.81-.55,8.13-.43,16.5,4.85,23.23,5.27,6.72,12.48,8.18,20.6,6.71.51-.46-2.56-4.71-3.12-5.49-4-5.63-9.35-10.13-14.09-15.1l1.11-.37c6.17,5.46,12.71,10.97,16.11,18.71ZM233.18,379.88c11.99,2.97,15.44-15.45,1.49-12.72l-1.49,12.72ZM292.3,367.16h-8.23s3,.74,3,.74l-.75,11.98c1.09.13,1.34-1.94,1.44-2.67.37-2.95.35-6.29.81-9.3l3.74-.74ZM292.31,379.88c1.24-.56,2.58-5.37,2.66-6.33.13-1.68-.94-4.38-.42-6.39-1.1-.05-1.29,2.64-1.41,3.45-.43,2.98-.66,6.26-.82,9.27ZM314.01,367.16c-2.26-.36-1.21.53-1.5,1.83-.79,3.58-.96,7.27-1.49,10.88,5.97,1.82,10.19-6.84,3-7.48-.23,1.18,1.33.71,1.9,1.45,1.56,2.05-.5,6.02-3.39,5.27-.8-2.07,1.09-4.2,1.17-5.58.11-1.9-1.3-4.21.33-6.39ZM340.96,379.88l.74-12.72c-1.98.27-1.11,4.6-1.57,5.15-.72.87-8.21.96-4.45,7.25l5.28.32ZM251.13,372.4l-3.37,6.73c-3.73-.28-.1-5.49-1.12-6.73-2.13.36-1.97,6.38-.79,7.17l5.28.31c-1.58-2.47.38-4.76,0-7.48ZM275.09,379.88c-1.25-2,.94-4.87-.33-6.78-.88-1.32-4.61-1.03-4.91.79l4.48.38c-1.32,1.68-6.07,1.41-5.22,4.48.53,1.93,4.5.39,5.98,1.13ZM305.03,376.9c11-2.25,1.19-7.8-.6-1.73-1.13,3.81.56,5.36,4.34,4.71.19-1.24-1.32-.64-2.2-1.15-.6-.36-1.42-1.1-1.54-1.83ZM321.26,372.53c-2.69.8-3.15,7.01-.13,7.4,6,.76,6.4-9.25.13-7.4ZM333.47,372.4l-3.37,6.73c-3.73-.28-.1-5.49-1.12-6.73-2.13.36-1.97,6.38-.79,7.17l5.28.31c-1.58-2.47.38-4.76,0-7.48ZM351.26,375.96c3.53-3.48-3.51-5.44-4.93-.8-1.12,3.66,1.78,5.32,5.11,4.71.71-3.15-2.49.83-3.73-1.88-.76-1.66,2.6-1.1,3.56-2.04ZM358.92,379.88c1.45-5.08,1.89-8.64-4.51-7.12l-1.47,7.12c2.3.37,1.19-.6,1.48-1.85.87-3.66,4.55-7.23,4.2-3.35-.1,1.09-1.52,4.75.29,5.21ZM367.9,379.88l-.33-6.77-4.82-.62-.83,7.4,1.68-4.67c.58-2.2,3.48-2.91,3.53-.26.02,1.35-2.39,5.47.77,4.93ZM375.39,372.4c-7.52-1.37-7.19,11.12,0,6.36-1.43-.58-4.44,1.61-4.49-1.49,0-.4,6.23-.97,4.49-4.87ZM367.53,385.87c-40.29.24-80.6-.18-120.88,0v5.99c2.09.14,4.6-.73,5.99,1.12v11.6l-6.36-6.74h-18.34v11.98h18.34l6.22,7.25c1.02,10.27-3.91,26.05,10.96,27.21,28.65,2.24,60.17-1.76,89.13,0,15.08-1.58,9.88-16.52,10.96-27.21l6.22-7.25h18.34v-11.98h-18.34l-6.36,6.74v-11.6c1.39-1.85,3.9-.98,5.99-1.12-.19-1.72.35-3.93-.08-5.54-.49-1.86-1.69-.45-1.79-.45Z"/>
      <path class="st1" d="M446.5,345.83c-2.13,15.41-14.98,24.97-30.33,22.09-.92-.17-1.38.41-1.12-1.14.21-1.25,6.88-9.55,8.26-11.21,3.46-4.15,7.85-8.08,11.21-12.36-1.43-.35-1.77.83-2.62,1.5-7.05,5.59-13.37,13.06-17.6,20.95-1.01.1-1.2-2.83-1.28-3.57-1.59-14.44,6.99-25.26,20.59-29.14,1.83-.52,12.88-3.1,12.88-.59-.41,4.24.57,9.38,0,13.47Z"/>
      <path class="st1" d="M221.95,389.61c-3.4-7.74-9.94-13.24-16.11-18.71l-1.11.37c4.75,4.97,10.09,9.47,14.09,15.1.55.78,3.63,5.03,3.12,5.49-8.12,1.47-15.33,0-20.6-6.71-5.27-6.73-5.4-15.09-4.85-23.23,14.5-.45,29.57,9.89,26.93,25.81-.15.88-.48,1.76-1.47,1.89Z"/>
      <path class="st1" d="M343.17,340.24l5.65,14.2c.89-4.06.76-8.46,1.78-12.48.33-1.3-.56-2.09,1.58-1.75l-2.28,17.94-2.19.02c-.97-3.87-2.58-8.22-4.3-11.8-.43-.89-.38-2.22-1.7-2.41-.16,3.9-.29,8.88-1.3,12.59-.36,1.33.25,1.95-1.7,1.63l2.25-17.96,2.19.02Z"/>
      <path class="st1" d="M314.68,340.29c.75.48,4.39,12.42,5.69,14.15.87-4.28,1.58-8.72,1.9-13.1.08-1.16.52-2.25,1.47-1.13-.33,5.09-.77,10.31-1.47,15.36-.41,2.96-1.56,3.72-3.17.89-1.78-3.12-3.01-8.29-4.34-11.76-1,.13-1.33,1.01-1.47,1.89-.47,2.89-.27,6.88-.77,9.71-.23,1.3-.82,2.09-2.24,1.87l2.25-17.97c.67.1,1.72-.2,2.16.08Z"/>
      <path class="st1" d="M260.12,342.45c-8.16-2.99-11.62,3.33-10.43,10.82,1.07,6.78,10.64,3.32,8.94-3.33-.75-.68-6.07,1.46-5.24-1.49l6.77.34c1,.67.47,1.14.39,1.89-.26,2.5-.51,5.08-1.2,7.5-4.08-1.39-7.98,2.34-10.61-2.47-3.46-6.34,1.14-17.86,9.37-15.35.77.24,1.8,1.27,2.01,2.09Z"/>
      <path class="st1" d="M221.03,312.69c2.09,3.61.7,6.07-2.82,7.68,1.24.86,4.2,8.83,3.74,9.36-1.92.37-1.31-.38-1.86-1.46-1.16-2.24-1.52-5.96-3.55-6.96-5.12-2.52-4.29,3.03-5.06,6.59-.28,1.31.75,2.19-1.5,1.83l2.34-17.87c2.11-.05,7.26-.63,8.71.83ZM212.96,319.26c8.76,1.51,10.67-7.81.7-5.66l-.7,5.66Z"/>
      <path class="st1" d="M275.09,358.17c-2.73.74-1.81-3.88-2.27-4.46l-7.76-.07c-.76.13-.82,5.35-3.44,4.53-.59-.64,6.03-14.25,6.91-15.91,1.17-2.19,2.68-3.23,3.53-.15,1.36,4.95,1.91,10.96,3.02,16.06ZM272.1,352.19l-1.87-8.98-4.12,8.98h5.99Z"/>
      <path class="st1" d="M364.17,319.25c-1.18,6.93.96,19.97-9.74,17.21v-2.24c5.65,3.47,6.31.11,7.48-4.87-2.05-.59-3.52,1.43-5.67-.3-4.31-3.47,2.74-11.92,7.93-9.79ZM362.66,320.75c-5.12-1.55-8.85,9.11-2.75,7.37,2.37-.67,2.32-5.23,2.75-7.37Z"/>
      <path class="st1" d="M373.89,329.73c-1.93.95-1.33-1.77-1.86-1.49-1.76.92-2.65,2.38-5.52,1.41-.93-1.74-.84-3.39.62-4.82,1.99-1.96,6.8-.6,4.89-4.08-1.68-.46-4.12,1.64-4.85-.73,9.98-3.02,6.53,3.09,6.73,9.72Z"/>
      <path class="st1" d="M337.21,340.22c.98.83.12,1.43-1.11,1.49-2.11.11-4.26-.09-6.37,0l-.43,6.02,6.41,1.46-6.67.07-.82,7.42c2.11.07,4.26-.11,6.38,0,1.23.06,2.08.66,1.11,1.49h-9.72s2.25-17.96,2.25-17.96h8.98Z"/>
      <path class="st1" d="M365.66,340.22c.98.84.12,1.43-1.11,1.49-2.1.11-4.22-.17-6.31.07l-.82,6.67c1.11.04,2.25-.06,3.37,0,.92.04,2.79-.57,2.62.74l-6.03.33-1.44,6.79c2.25.76,4.78.25,7.11.36,1.23.06,2.08.66,1.11,1.5h-9.73s2.31-17.89,2.31-17.89l8.91-.06Z"/>
      <path class="st1" d="M299.79,340.22c.98.84.12,1.43-1.11,1.49-2.1.11-4.22-.17-6.31.07l-.82,6.67c1.11.04,2.25-.06,3.37,0,.92.04,2.79-.57,2.62.74l-6.03.33-1.44,6.79c2.25.76,4.78.25,7.11.36,1.23.06,2.08.66,1.11,1.5h-9.73s2.31-17.89,2.31-17.89l8.91-.06Z"/>
      <path class="st1" d="M389.61,329.73c-2.79-1.51-5.47,1.07-7.9-.7-1.2-1.73.38-4.03,1.96-4.86,1.9-1,5.9-.28,4.06-3.42-1.63-.74-5.44,2.3-4.85-.73,9.98-3.29,5.65,3.69,6.73,9.72Z"/>
      <path class="st1" d="M256.28,320.1l-.65,9.63c-1.6.22-1.61.07-1.51-1.49-8.67,5.17-7.7-5.81.76-5.26v-2.23c-.8-.77-6.36,1.91-5.23-.37,1-2.01,4.96-1.07,6.63-.29Z"/>
      <path class="st1" d="M322.2,312.58l.04,2.19c-1.88-2.3-7.52-2.11-7.51,1.12,0,3.06,9,5.75,6.38,11.59-1.62,3.62-9.71,3.26-10.09-1.49,1.21-1.15,4.03,5.31,7.89,1.52,4.13-4.06-3.8-6.31-5.08-9.2-2.57-5.82,3.61-8.04,8.37-5.74Z"/>
      <path class="st1" d="M284.82,329.73l-1.51-1.49c-8.69,5.1-7.89-5.72.76-5.25.02-3.03-3.22-2.59-5.23-1.49-.11-3.45,5.84-2.9,6.62-.22.65,2.24-1.39,5.84-.64,8.45Z"/>
      <path class="st1" d="M325.99,325.25c.23,3.91,3.1,4.38,5.98,2.24.15,3.01-3.85,2.58-6,1.88-4.03-4.77.5-12.3,6.43-9.42,1.53,4.03-3.02,5.72-6.41,5.29Z"/>
      <path class="st1" d="M226.43,325.24c-.25,1.69.48,2.89,1.98,3.64l3.26-1.39c.18,2.23-1.54,2.32-3.35,2.29-7.06-.15-4.17-10.58,1.5-10.57s1.3,7.37-3.38,6.05Z"/>
      <path class="st1" d="M347.69,325.24c.43,6.3,3.82,2.26,4.87,2.26,1.77,0,1.24,2.73-3.02,2.28-6.36-.68-3.57-10.52,1.52-10.59,5.66-.08,1.38,7.42-3.37,6.06Z"/>
      <path class="st1" d="M290.81,319.26l.37,1.49c6.71-4.36,6.5,1.07,5.62,6.37-.48,2.88-2.5,4.18-1.92,1.08.4-2.16.3-4.28,1-6.35-4.85-3.95-6.38,4.08-5.82,7.89h-2.24c1.04-3.18.87-6.68,1.51-10.06.15-.79.83-.4,1.49-.42Z"/>
      <path class="st1" d="M260.87,319.26l-.7,7.77c5.08,4.23,4.77-2.99,5.57-6.3.33-1.34.27-1.74,1.86-1.46l-.75,10.47c-1.93.95-1.33-1.77-1.86-1.49-1.75.91-2.65,2.39-5.52,1.4-1.48-2.99-.23-5.94-.08-9.26.05-1.23.62-2.14,1.48-1.12Z"/>
      <path class="st1" d="M281.08,340.22l-1.5,16.47c2.11.07,4.26-.11,6.38,0,1.23.06,2.08.66,1.11,1.49h-9.72c1.06-5.3,1.08-10.85,2.24-16.12.29-1.3-.76-2.19,1.5-1.84Z"/>
      <path class="st1" d="M337.2,319.29l.39,1.46c1.25-1.68,3.59-2.23,5.29-.79.71,3.23.52,6.66-.43,9.77-1.33.07-1.59.37-1.5-1.12.14-2.29.92-4,.77-6.76-.12-2.09-2.33-1.19-3.42-.4-1.97,1.42-1.68,4.65-2.2,6.82-.32,1.34-.28,1.74-1.87,1.46.8-2.76.48-5.68.93-8.44.22-1.35.49-2.53,2.04-2Z"/>
      <path class="st1" d="M233.18,379.88l1.49-12.72c13.95-2.73,10.5,15.69-1.49,12.72ZM241.24,368.83c-.72-.72-4.25-1.34-4.99-.84l-1.57,11.14c5.66,2,9.84-7.03,6.56-10.3Z"/>
      <path class="st1" d="M275.09,379.88c-1.48-.74-5.45.8-5.98-1.13-.84-3.07,3.9-2.8,5.22-4.48l-4.48-.38c.3-1.82,4.03-2.11,4.91-.79,1.27,1.91-.92,4.78.33,6.78Z"/>
      <path class="st1" d="M340.96,379.88l-5.28-.32c-3.75-6.29,3.74-6.38,4.45-7.25.46-.56-.41-4.89,1.57-5.15l-.74,12.72ZM339.09,373.16c-6.96,3.42-.84,10.1.59,2.06.18-1.03.89-1.02-.59-2.06Z"/>
      <path class="st1" d="M378.38,329.73c-1.25.04-1.64.4-1.45-1.07.59-4.53.94-10.99,2.1-15.12.28-1.01.27-2.28,1.6-2.52l-2.25,18.71Z"/>
      <path class="st1" d="M314.01,367.16c-1.63,2.18-.21,4.49-.33,6.39-.08,1.37-1.97,3.51-1.17,5.58,2.89.74,4.95-3.22,3.39-5.27-.57-.74-2.12-.27-1.9-1.45,7.19.63,2.97,9.29-3,7.48.53-3.61.7-7.3,1.49-10.88.29-1.3-.76-2.19,1.5-1.83Z"/>
      <path class="st1" d="M303.68,319.13c.31.45,2.12.47,2.1,1.62h-3c-.08,2.61.14,5.26,0,7.88-.06,1.18-.48,1.96-1.49,1.11-1.33-2.89.44-5.45,0-8.52l-1.51-.84c2.93-1.04,1.72-2.89,3.37-4.86.95.68-.11,2.7.51,3.61Z"/>
      <path class="st1" d="M245.9,315.51l-.75,3.74h1.71s.54,1.5.54,1.5l-2.14.08c-.65,2.61-.76,5.11-.86,7.79-.05,1.25-.68,2.07-1.49,1.11l.81-8.54-1.53-.46-.02-1.46c2.74.45.78-4.3,3.73-3.75Z"/>
      <path class="st1" d="M403.08,319.26c.82,2.77-3.18.94-3.74,1.5-.85,2.96,2.53,3.03,3.23,4.66,2.08,4.81-1.78,4.59-5.48,4.32-.76-2.94,3.3-.26,4.49-1.5.37-2.79-2.77-3.14-3.44-5.21-1.07-3.28,2.22-4.2,4.94-3.77Z"/>
      <path class="st1" d="M239.91,320.75h-3.74c-.73,2.71,2.54,3.62,3.39,5.25,1.84,3.54-5.01,5.45-6.39,2.25h5.24c-.59-3.31-5.07-3.99-3.65-8.15,1.74-.71,4.22-1.78,5.15.65Z"/>
      <path class="st1" d="M351.26,375.96c-.96.94-4.32.38-3.56,2.04,1.24,2.7,4.44-1.27,3.73,1.88-3.33.6-6.22-1.05-5.11-4.71,1.42-4.65,8.46-2.68,4.93.8Z"/>
      <path class="st1" d="M305.03,376.9c.12.72.93,1.47,1.54,1.83.88.51,2.39-.09,2.2,1.15-3.78.65-5.47-.9-4.34-4.71,1.8-6.06,11.6-.51.6,1.73Z"/>
      <path class="st1" d="M375.39,372.4c1.73,3.89-4.5,4.47-4.49,4.87.05,3.09,3.06.91,4.49,1.49-7.19,4.76-7.52-7.73,0-6.36Z"/>
      <path class="st1" d="M276.59,319.26c-.72,1.71-3.28,2.07-4.09,3.76-.6,1.25-.68,3.44-1.05,4.97-.32,1.32.54,2.09-1.58,1.74l1.09-9.77.86-.58,4.78-.12Z"/>
      <path class="st1" d="M358.92,379.88c-1.81-.45-.39-4.12-.29-5.21.35-3.87-3.34-.31-4.2,3.35-.3,1.25.82,2.22-1.48,1.85l1.47-7.12c6.41-1.52,5.96,2.05,4.51,7.12Z"/>
      <path class="st1" d="M292.3,367.16l-3.74.74c-.46,3.01-.44,6.35-.81,9.3-.09.73-.35,2.8-1.44,2.67l.75-11.98-3-.74h8.23Z"/>
      <path class="st1" d="M251.13,372.4c.39,2.73-1.58,5.01,0,7.48l-5.28-.31c-1.18-.79-1.35-6.81.79-7.17,1.02,1.25-2.6,6.46,1.12,6.73l3.37-6.73Z"/>
      <path class="st1" d="M321.26,372.53c6.27-1.85,5.87,8.16-.13,7.4-3.02-.38-2.56-6.6.13-7.4ZM320.93,374.08c-.78.82-1.05,2.69-.87,3.83.83,2.85,5.62.5,4.35-3.56-.51-1.64-2.58-1.22-3.48-.27Z"/>
      <path class="st1" d="M333.47,372.4c.39,2.73-1.58,5.01,0,7.48l-5.28-.31c-1.18-.79-1.35-6.81.79-7.17,1.02,1.25-2.6,6.46,1.12,6.73l3.37-6.73Z"/>
      <path class="st1" d="M367.9,379.88c-3.16.53-.75-3.59-.77-4.93-.05-2.65-2.95-1.94-3.53.26l-1.68,4.67.83-7.4,4.82.62.33,6.77Z"/>
      <path class="st1" d="M292.31,379.88c.17-3.01.4-6.3.82-9.27.12-.81.31-3.5,1.41-3.45-.51,2.01.55,4.71.42,6.39-.07.96-1.42,5.77-2.66,6.33Z"/>
      <path class="st1" d="M395.6,319.26c-1.14,2.86-.61,5.63-1.41,8.72-.34,1.3.57,2.1-1.58,1.75.04-.98.65-12.95,2.99-10.47Z"/>
      <g>
        <path class="st1" d="M253.38,249.65c-10.08,12.58-15.8,29.2-9.35,44.89.85,2.08,2.81,4.29,3.35,5.63.38.93-.15,1.4-1.1,1.1-2.5-.77-9.52-6.74-11.2-9.02-10.81-14.68,1.46-28.73,12.29-38.52l6-4.1Z"/>
        <path class="st1" d="M255.63,267.6c8.99-9.57,11.35-22.96,7.31-35.37l-4.69-11.03c7.19,6.35,15.05,13.91,14.94,24.32-.09,8.1-5.87,14.53-12.07,18.96-.83.6-4.95,3.59-5.49,3.11Z"/>
        <g>
          <path class="st1" d="M327.56,273.52c17.39,4.4,45.17,11.46,44.84,33.76l-124.25-17.22c6.15-22.04,34.73-20.46,53.14-20.21l1.52-13.45,26.21,3.31c1.73,1.09-.33,3.93-.61,5.45-.22,1.22-1.15,7.92-.85,8.36ZM325.99,263.87l-19.87-2.83-.98,1.07-.87,8.5,20.21,2.25,1.5-8.98ZM303.53,273.6c-2.69.43-5.18-.92-7.83-.79-10.98.55-28.88,2.18-37.31,9.9-.73.66-1.61.66-1.26,2.11,3.89-.11,10.15,2.42,13.71,1.35,1.13-.34,3.33-3.18,4.76-4.22,7.69-5.57,16.05-7.25,25.33-7.61.91-.04,2.78.56,2.61-.74Z"/>
          <path class="st0" d="M303.53,273.6c.17,1.31-1.7.71-2.61.74-9.28.36-17.64,2.04-25.33,7.61-1.43,1.04-3.63,3.88-4.76,4.22-3.56,1.07-9.82-1.46-13.71-1.35-.35-1.44.53-1.44,1.26-2.11,8.43-7.72,26.33-9.35,37.31-9.9,2.65-.13,5.14,1.22,7.83.79Z"/>
          <polygon class="st0" points="325.99 263.87 324.49 272.85 304.28 270.6 305.14 262.11 306.12 261.04 325.99 263.87"/>
        </g>
      </g>
      <path class="st0" d="M212.96,319.26l.7-5.66c9.97-2.15,8.06,7.17-.7,5.66Z"/>
      <polygon class="st0" points="272.1 352.19 266.11 352.19 270.23 343.21 272.1 352.19"/>
      <path class="st0" d="M362.66,320.75c-.43,2.14-.38,6.69-2.75,7.37-6.1,1.74-2.38-8.92,2.75-7.37Z"/>
      <path class="st0" d="M241.24,368.83c3.28,3.28-.9,12.3-6.56,10.3l1.57-11.14c.74-.51,4.26.12,4.99.84Z"/>
      <path class="st0" d="M339.09,373.16c1.48,1.04.77,1.03.59,2.06-1.43,8.04-7.56,1.36-.59-2.06Z"/>
      <path class="st0" d="M320.93,374.08c.9-.94,2.97-1.37,3.48.27,1.26,4.06-3.52,6.41-4.35,3.56-.18-1.14.09-3.01.87-3.83Z"/>
      <g>
        <path class="st1" d="M367.53,385.87c.11,0,1.3-1.41,1.79.45.43,1.61-.11,3.82.08,5.54-2.09.14-4.61-.73-5.99,1.12v11.6l6.36-6.74h18.34v11.98h-18.34l-6.22,7.25c-1.08,10.69,4.12,25.63-10.96,27.21-28.96-1.76-60.48,2.24-89.13,0-14.87-1.16-9.95-16.94-10.96-27.21l-6.22-7.25h-18.34v-11.98h18.34l6.36,6.74v-11.6c-1.39-1.85-3.9-.98-5.99-1.12v-5.99c40.29-.18,80.6.24,120.89,0ZM271.35,397.85h-12.72v38.55c0,.08,1.04,1.12,1.12,1.12h11.6v-39.67Z"/>
        <path class="st0" d="M271.35,397.85v39.67h-11.6c-.08,0-1.12-1.04-1.12-1.12v-38.55h12.72Z"/>
      </g>
    </g>
  </g>
</svg>